HIERARCHY
ROOT Hips
{
  OFFSET 0.0 0.0 0.0
  CHANNELS 6 XPOSITION YPOSITION ZPOSITION ZROTATION XROTATION YROTATION 
  JOINT LeftUpLeg
  {
    OFFSET 0.089458 -0.0866707 0.00101652
    CHANNELS 3 ZROTATION XROTATION YROTATION 
    JOINT LeftLeg
    {
      OFFSET 0.0 -0.444227 0.013727
      CHANNELS 3 ZROTATION XROTATION YROTATION 
      JOINT LeftFoot
      {
        OFFSET -0.00253549 -0.420924 -0.0146059
        CHANNELS 3 ZROTATION XROTATION YROTATION 
        End Site
        {
          OFFSET -0.0004 -0.0441509 0.084991
        }
      }
    }
  }
  JOINT Spine
  {
    OFFSET 0.0 0.118905 0.0
    CHANNELS 3 ZROTATION XROTATION YROTATION 
    JOINT Spine1
    {
      OFFSET 0.0 0.256574 0.00127663
      CHANNELS 3 ZROTATION XROTATION YROTATION 
      End Site
      {
        OFFSET -0.0029 0.2150836 0.02525291
      }
      JOINT RightArm
      {
        OFFSET -0.162727 -0.05365632 0.00102123
        CHANNELS 3 ZROTATION XROTATION YROTATION 
        JOINT RightForeArm
        {
          OFFSET -0.26364 0.00099144 -0.0142434
          CHANNELS 3 ZROTATION XROTATION YROTATION 
          End Site
          {
            OFFSET -0.220324 0.00085362 0.0102216
          }
        }
      }
      JOINT LeftArm
      {
        OFFSET 0.162727 -0.0536563199 0.00102123
        CHANNELS 3 ZROTATION XROTATION YROTATION 
        JOINT LeftForeArm
        {
          OFFSET 0.262597 0.00099144 -0.0142434
          CHANNELS 3 ZROTATION XROTATION YROTATION 
          End Site
          {
            OFFSET 0.220902 0.00085362 0.0102216
          }
        }
      }
    }
  }
  JOINT RightUpLeg
  {
    OFFSET -0.089458 -0.0866707 0.00101652
    CHANNELS 3 ZROTATION XROTATION YROTATION 
    JOINT RightLeg
    {
      OFFSET 0.0 -0.444227 0.013727
      CHANNELS 3 ZROTATION XROTATION YROTATION 
      JOINT RightFoot
      {
        OFFSET 0.00253549 -0.420924 -0.0146059
        CHANNELS 3 ZROTATION XROTATION YROTATION 
        End Site
        {
          OFFSET 0.0004 -0.0441509 0.084991
        }
      }
    }
  }
}
MOTION
Frames: 19
Frame Time: 0.033333
1.99377 1.03809640354 0.0803301 -6.67727959063 -0.333693000687 -91.8515984866 -0.444102021444 4.1068898682 3.54897995312 -0.420911981747 10.2419992878 21.2996000021 -2.51636057821 -7.67369704194 -0.0368135623629 -0.35994099078 5.89797976577 0.153048997952 -0.644181020638 -6.58214999653 0.298974001877 76.9591359826 -18.1083273011 1.33796938505 10.0445999906 41.3713027462 4.7346598119 -72.4951292467 -8.43190268133 3.97154582782 -7.232789548 39.0306993705 -10.9356997669 -2.27630995129 5.83927983938 -5.62235986153 -0.253160001091 11.7870008847 -11.183600629 4.70338608323 -10.6907999191 0.0851027896865 
1.99365 1.03809640354 0.0804668 -6.72946991985 -0.370662013219 -91.9768983069 -0.517909018935 4.24571004799 3.52665996213 -0.425987986239 10.1060998677 21.4603997307 -2.50263104421 -7.64389607282 -0.0368109910368 -0.349359000043 5.87973974559 0.19603899566 -0.684726037407 -6.48970039791 0.352103001862 76.9517320575 -18.1059333198 1.38409568023 10.0124989553 41.5228987949 4.74908004878 -72.4869193593 -8.31450795119 3.99391213603 -7.21751041482 38.8837000392 -10.9933994975 -2.3473799906 5.85210010445 -5.66555013586 -0.280520991854 11.8609001164 -10.991100285 4.75050371634 -10.7408993567 0.0851167969104 
1.99356 1.03809640354 0.0805961 -6.76156028301 -0.402336988815 -92.0531027275 -0.573114983397 4.34818977941 3.51217996109 -0.438677997469 9.98662022228 21.5628013418 -2.46458155445 -7.61769632094 -0.0368087432108 -0.337481994768 5.85997018992 0.220311006691 -0.722489993245 -6.42057973728 0.385591979652 76.9671204737 -17.994406576 1.40554663637 10.0488995947 41.3307997244 4.75956993869 -72.4675830938 -8.13007149926 4.03564843384 -7.19021954022 38.7173985933 -11.0747991307 -2.40121981051 5.85868952945 -5.69733015229 -0.303736991606 11.9115997568 -10.8629001956 4.78256206298 -10.7787992226 0.0851275157717 
1.99366 1.03809640354 0.0806112 -6.70755013526 -0.38853301642 -91.9651025702 -0.531919017583 4.25565992606 3.53103000253 -0.457551010765 10.0266997723 21.4539008057 -2.43643135667 -7.62679669423 -0.0368095069381 -0.353329981313 5.83877995491 0.18411100409 -0.680588009987 -6.46013976607 0.341652012019 76.9900767395 -17.8527962639 1.3910758134 10.1734993206 40.8638982381 4.70713969907 -72.4525225267 -8.05268887106 4.06671426862 -7.17835037899 38.7075016492 -11.0956995095 -2.36349005897 5.82240969902 -5.6630801687 -0.300305968807 11.873099688 -10.9918994172 4.76371330219 -10.752899999 0.0851202053349 
1.99387 1.03809640354 0.0806206 -6.61162994676 -0.359324993094 -91.8384981837 -0.458589999932 4.07517004281 3.56345013576 -0.479741014718 10.1359998745 21.2926007658 -2.43894123774 -7.64329672372 -0.0368109176656 -0.372713017641 5.83555012921 0.132337996758 -0.628146991478 -6.57922027226 0.276898990562 76.9866684751 -17.7879828913 1.38267894959 10.2844011022 40.6323001837 4.61072987139 -72.432243695 -8.14653140139 4.08437543027 -7.19617973405 38.8406015455 -11.037999779 -2.2939901094 5.75234988738 -5.59476973926 -0.292620992134 11.8044998293 -11.2045001541 4.73505596287 -10.7025999247 0.0851060246882 
1.99398 1.03809640354 0.0806258 -6.55882020476 -0.354816001025 -91.7999007847 -0.438476987137 3.98709005771 3.57821999295 -0.494968974834 10.1801997362 21.2479005928 -2.44461136197 -7.63989614329 -0.0368106808768 -0.366965013248 5.85693972037 0.118506997091 -0.647536991398 -6.67225982848 0.261885994643 76.9522716424 -17.7711157392 1.39173844847 10.2976994805 40.7795010056 4.57080015861 -72.3988850511 -8.30880047437 4.09224594262 -7.22726050986 38.9825977633 -10.9615998442 -2.27206007953 5.70826998091 -5.55738982148 -0.300282009784 11.7742002564 -11.2863002072 4.73692658093 -10.6852000178 0.0851012355517 
1.9939 1.03809640354 0.0806263 -6.56983986121 -0.36708400795 -91.8080970118 -0.458468017022 4.00966980933 3.57429989126 -0.49408595944 10.1709994714 21.2680001319 -2.4209511598 -7.63509708162 -0.0368102139694 -0.352132990661 5.85410006922 0.131552004735 -0.698663998904 -6.64310004336 0.282444010271 76.9245069235 -17.7547984172 1.41477966475 10.2568993455 40.9409017908 4.60374002655 -72.3694879169 -8.43195049265 4.07065571466 -7.24961998789 39.0741974302 -10.9103000009 -2.29002006195 5.72636016381 -5.56944980112 -0.305263992453 11.7752999168 -11.2586994127 4.75825555416 -10.7018998303 0.0851058979562 
1.99374 1.03809640354 0.0806216 -6.59041964807 -0.36797801568 -91.7741031603 -0.459280009121 4.02958023765 3.56955995342 -0.489866023111 10.1893001095 21.2332003181 -2.37988101888 -7.65159625733 -0.0368117214134 -0.330688998112 5.82308033822 0.122751999681 -0.746760963739 -6.57186970806 0.282397986535 76.9437612267 -17.7586830873 1.43714714689 10.2654994074 40.8065997811 4.6089800623 -72.3440522925 -8.53494974533 4.03955060629 -7.27170028193 39.1726990033 -10.8573002943 -2.30077013937 5.76630994027 -5.60230984122 -0.282432004079 11.7717004071 -11.2526999453 4.7666643708 -10.7203993976 0.0851110672888 
1.99363 1.03809640354 0.0806111 -6.57621968478 -0.365246980548 -91.7159031183 -0.445678007554 3.99814002313 3.56480998374 -0.489272010097 10.2251995838 21.1714007665 -2.35734096773 -7.67039635303 -0.036813318904 -0.262940004889 5.87998990127 0.0828286968786 -0.865998991175 -6.70257007358 0.258066985082 76.9938333435 -17.7540658795 1.38643139148 10.3097001229 40.5839014632 4.57997011446 -72.2871158355 -8.62868640773 4.09054778684 -7.29339979292 39.2800012752 -10.8018997761 -2.30493015146 5.77357982287 -5.63107006027 -0.245913997475 11.758099793 -11.2793991548 4.75690403048 -10.7294007332 0.0851136286097 
1.99352 1.03809640354 0.0805943 -6.54392014709 -0.38064300067 -91.698199268 -0.45943699675 3.97115010373 3.55078995325 -0.489156003602 10.2201998853 21.1720001156 -2.36490091992 -7.66619664046 -0.0368129220326 -0.162626990901 6.07688974089 0.0536235983953 -1.0554900499 -7.09130004491 0.249976999536 77.0107448919 -17.6691717507 1.20867785277 10.2623003176 40.7441001351 4.64959023267 -72.1969436781 -8.60463475034 4.25653205584 -7.27034961202 39.2790996902 -10.8322002029 -2.32216997582 5.75986992565 -5.6454595613 -0.234750987092 11.7405999945 -11.2794000086 4.74888410773 -10.7349997808 0.0851151760745 
1.99329 1.03809640354 0.080569 -6.53037033243 -0.399957014734 -91.7197007035 -0.488109970803 3.9885999564 3.53560003942 -0.483665972253 10.1878000292 21.2157987037 -2.38664098517 -7.65989664472 -0.0368124217746 -0.129678998778 6.21744009297 0.0690233971323 -1.12709999431 -7.38038054445 0.27160399313 76.9718128137 -17.5625729883 1.02320342552 10.0895998382 41.328398913 4.84285043524 -72.1452049951 -8.42420078926 4.39196616935 -7.17403967585 39.1400985104 -10.984499761 -2.33168997886 5.76875984375 -5.63568043796 -0.259004001658 11.7209999129 -11.2630997621 4.7609235968 -10.7420997624 0.0851171570961 
1.99299 1.03805640354 0.0805163 -6.53678046497 -0.392399010211 -91.7379987803 -0.487217990786 4.02075990211 3.53013994351 -0.466390983099 10.1814001419 21.2302991953 -2.41090053644 -7.68709616555 -0.0368147196264 -0.209615997668 6.07497984924 0.111486996697 -0.961477085005 -7.1965895454 0.295210994531 76.9285845464 -17.5781236215 1.0331906562 9.9418602851 41.7427011125 4.98492050441 -72.1903252248 -8.27378124072 4.3282370893 -7.07083978636 39.0258977475 -11.1366994276 -2.30853008804 5.79529982443 -5.60727026611 -0.28637801247 11.7152002286 -11.2697002862 4.79252261322 -10.7601997637 0.0851222663978 
1.99269 1.03796640354 0.0804483 -6.53967006187 -0.364394994491 -91.7365029689 -0.461199985969 4.03432978044 3.52622005526 -0.439407013442 10.2014996811 21.2128002506 -2.4393898958 -7.735196919 -0.0368189151234 -0.313711015466 5.74876019608 0.133971999455 -0.718856012442 -6.69507009898 0.291051996296 76.9330036788 -17.7109912915 1.23853431718 9.95192969149 41.5347013617 4.95281007757 -72.2965619872 -8.32506998497 4.12712387673 -7.0268601983 39.0565994478 -11.1756998077 -2.2737699747 5.80917023108 -5.58706016324 -0.286618990081 11.7306996353 -11.2902002452 4.81583404886 -10.7904002989 0.0850971134258 
1.9924 1.03791640354 0.0803582 -6.53339012982 -0.34982801526 -91.7183005147 -0.449150998664 4.03720016744 3.52469991128 -0.413993026798 10.2153999699 21.1950998154 -2.46579946255 -7.7599964821 -0.0368211262638 -0.356672985386 5.55013957568 0.118723001824 -0.611017037123 -6.37112020307 0.262305997916 76.9679469266 -17.833193621 1.41543792423 10.0254993666 41.1819972232 4.85572021918 -72.3833736915 -8.47066144355 4.00887878805 -7.01462007242 39.1222990375 -11.1620001558 -2.25721999945 5.82079990881 -5.58626999573 -0.269543010228 11.7358999706 -11.3129994166 4.79898738727 -10.8079999888 0.0850413513345 
1.99213 1.03790640354 0.0802297 -6.53182004008 -0.360069003466 -91.685597569 -0.45554795107 4.04884990885 3.52741000227 -0.405392004364 10.2161999558 21.1707997099 -2.47217949957 -7.75479614683 -0.0368206760316 -0.366655013373 5.58232983035 0.0968276031395 -0.621361038455 -6.41275020606 0.238885972943 76.9815048521 -17.9004078051 1.41215100241 9.99494963798 41.4006008427 4.85471959647 -72.4162337316 -8.51426195611 4.04045560636 -6.99510963705 39.0928984882 -11.1828996809 -2.25435003934 5.85287959979 -5.5888398544 -0.26426700926 11.7140006766 -11.351599377 4.76224566529 -10.8032999649 0.0850666643891 
1.99187 1.03792640354 0.0801157 -6.54270010454 -0.37782199914 -91.6487008871 -0.460828967958 4.07458008522 3.52635004229 -0.410425000009 10.2125995923 21.1316012542 -2.462859493 -7.75679653848 -0.0368207794182 -0.39514301203 5.69195009766 0.101951999255 -0.61222000419 -6.59435981345 0.24234999943 76.9538767369 -17.9339457414 1.29004771062 9.86517945884 41.8940990857 4.97096002463 -72.420543581 -8.45549073963 4.09282522804 -7.00428983818 39.0214991057 -11.1903001908 -2.25576004652 5.89025994446 -5.59482993031 -0.272329007038 11.7072003695 -11.3883995824 4.76834971998 -10.8116003523 0.085141049418 
1.99161 1.03794640354 0.0800726 -6.56193007527 -0.388317011687 -91.6182997151 -0.466545996376 4.11044967742 3.51328986683 -0.403845980374 10.2114990781 21.0999996765 -2.47432887472 -7.78269661581 -0.0368230372493 -0.430974024333 5.77103984627 0.121638999011 -0.548555971019 -6.71478970889 0.257134984425 76.9067757524 -17.9244210426 1.18261950714 9.83073054599 41.6902999012 5.05642959681 -72.4386299219 -8.36116668096 4.10317040331 -7.05113981325 38.9422996472 -11.1610003869 -2.26750007448 5.91998962348 -5.62439995366 -0.267997973413 11.7351998762 -11.3891995683 4.81566286724 -10.8469995152 0.085226633556 
1.99131 1.03795640354 0.0800231 -6.57267951236 -0.391192014399 -91.5947014115 -0.476372984406 4.13757022418 3.48892999715 -0.377418991299 10.2170998332 21.0866005529 -2.51900855718 -7.80349624938 -0.0368249415648 -0.466675983414 5.8220698971 0.120798005289 -0.465863991316 -6.75981004703 0.246839995036 76.8814835619 -17.9094936642 1.17886183588 10.0065003416 40.8272030468 4.94265059807 -72.4936266051 -8.19759816449 4.14098147679 -7.05438031112 38.7529019166 -11.2065005458 -2.27979996452 5.95391986884 -5.66322018758 -0.244098020929 11.7394004426 -11.377100742 4.81696956781 -10.8649005873 0.0852688620009 
1.99102 1.03795640354 0.079866 -6.54418993956 -0.391929994995 -91.5844014862 -0.475386022071 4.1251098247 3.48280011581 -0.362944993355 10.2190003333 21.0825997696 -2.55056851345 -7.80009652272 -0.0368246047244 -0.539322996004 5.78728972008 0.106295999567 -0.353795981642 -6.70122025744 0.215054002186 76.8978008838 -17.9668518853 1.29519489849 10.1911997559 40.6004988229 4.7140100156 -72.5725699315 -8.02757853435 4.1916947776 -7.00361962587 38.5328981083 -11.3182996434 -2.27389996173 5.96623982256 -5.67132036505 -0.223476999474 11.6921995665 -11.3880000164 4.75219333438 -10.8513998646 0.0852217310276 
